<?xml version="1.0" encoding="utf-8"?>
<!-- Generator: Adobe Illustrator 25.2.1, SVG Export Plug-In . SVG Version: 6.00 Build 0)  -->
<svg version="1.1" id="Layer_2" xmlns="http://www.w3.org/2000/svg" xmlns:xlink="http://www.w3.org/1999/xlink" x="0px" y="0px"
	 viewBox="0 0 600 600" style="enable-background:new 0 0 600 600;" xml:space="preserve">
<path d="M551,51.8c-3.3-14.5-7.5-27.4-11.9-38.7c-4-2-9.7-4.3-16.8-5.4c-2.2-0.3-9.9-1.4-19.9,0.3c-56.8,9.7-125.4,43.5-125.4,43.5
	c-36.3,17.9-64.9,32.2-81.5,40.6c-0.6,0-1.1,0-1.7,0c-30.9-16.3-57.6-29.3-78-38.9c0,0-57.6-27.1-132.6-43.8
	C77.6,8.2,66.7,6,54.1,9.6c-5.8,1.6-10.3,4-13.2,5.8c-5.3,12.6-10.6,27.8-14.6,45.3c-5.6,24.7-7.1,46.6-6.9,63.9
	c17.1,12.8,32.2,22.4,43.6,29.1c13.2,7.8,30.1,17,52.1,21c11.9,2.2,20.7,2,25.7-3.3c2.9-3.1,3.7-7.1,4-10c-9.4-2-26.3-7-43.4-20.1
	c-19.1-14.7-28.4-32-32.5-41c12.2-4,54.2-16.2,101.1,2.6c32.9,13.2,52.4,35.2,61,46.3c0,0.5,0,1,0,1.5c-16,18.2-32.9,39.5-49.6,63.9
	c-24.2,35.7-42.1,69.9-55.3,99.7c0,0.5,0,0.9,0,1.4c18.7,43,41.9,90.2,70.9,139.9c30.7,52.6,62.3,98.3,92.2,137.3c1,0,2,0,3,0
	c31.1-38.4,64.3-84.1,96.6-137.3c29.1-48.1,52.4-93.9,70.9-135.4c0-0.4,0-0.8,0-1.2c-11.9-30.4-28.9-66.3-53.2-104.1
	c-18.3-28.4-37.1-52.3-54.6-72.1c0-0.3,0-0.7,0-1c11-6.2,27-15,46.9-24.7c37.7-18.5,48.4-20.4,53.6-21.2c11.3-1.6,32-2.3,58.7,9.6
	c0,1.3,0,2.6,0,3.9c-1.6,3.3-4.1,7.9-7.7,13c-5.5,7.8-11.8,14.1-27.9,26.6c-8.1,6.3-18.5,14-31,22.3c0,1.3,0,2.5,0,3.8
	c15.2-0.8,38-3.7,63.5-14.3c21.9-9.1,38.2-20.7,49-29.7C558.6,110.1,558,82.7,551,51.8z M386.5,279.7c12.6,17.9,19.8,34.8,24,46.4
	c0,0.8,0,1.5,0,2.3c-6.4,10.1-15.5,23.4-27.1,38.5c-10,12.9-22.1,28.5-40.2,45.9c-11.7,11.3-28.3,25.7-50.1,40.2c-0.7,0-1.4,0-2.1,0
	c-20.7-14.6-45-34.4-69.4-60.5c-20.2-21.7-36-42.9-48.1-61.5c0-0.9,0-1.8,0-2.7c9.2-19.8,23.6-45.3,45.7-71.7
	c23.8-28.3,48.4-47.8,67.2-60.5h4.5c19.3,12.4,34.4,24.1,45.1,33C355.7,245.2,371.4,258.3,386.5,279.7z"/>
</svg>
